<svg width="134" height="21" viewBox="0 0 134 21" fill="none" xmlns="http://www.w3.org/2000/svg">
<g clip-path="url(#clip0_5_826)">
<path d="M33.2458 19.9581C32.0488 19.4343 30.96 18.6891 30.0361 17.7611C29.1121 16.8311 28.3692 15.7353 27.8454 14.5304C27.3143 13.2681 27.0414 11.9111 27.043 10.5404C27.0414 9.17222 27.3143 7.81784 27.8454 6.55845C28.3682 5.35292 29.1113 4.25698 30.0361 3.32768C30.9558 2.39664 32.0458 1.65339 33.2458 1.13884C34.4961 0.601036 35.8422 0.326178 37.2018 0.331147C38.5615 0.325264 39.908 0.60016 41.1579 1.13884C42.3566 1.65605 43.446 2.39897 44.3677 3.32768C45.2886 4.25519 46.024 5.35194 46.5343 6.55845C47.0686 7.81684 47.3416 9.17188 47.3367 10.5404C47.3418 11.9115 47.0688 13.2692 46.5343 14.5304C46.0221 15.7358 45.2869 16.8322 44.3677 17.7611C43.4422 18.6872 42.3538 19.4322 41.1579 19.9581C39.9069 20.4933 38.5612 20.768 37.2018 20.7658C35.8426 20.7674 34.4971 20.4926 33.2458 19.9581Z" fill="white"/>
<path d="M67.2447 11.2996C68.6793 11.2875 70.0516 10.7072 71.0643 9.68422C71.5902 9.17291 72.0045 8.55692 72.2808 7.87552C72.5571 7.19411 72.6894 6.46224 72.6692 5.72654C72.6736 4.24115 72.0971 2.81369 71.0643 1.7527C70.572 1.2236 69.98 0.798265 69.3229 0.501531C68.6657 0.204796 67.9566 0.0425694 67.2366 0.024231H59.9424C59.806 0.024231 60.2233 0.395773 60.2233 0.533081V20.58C60.2233 20.7173 59.806 21.0242 59.9424 21.0242H72.0593C72.1315 21.0242 72.1877 20.8708 72.2278 20.8061C72.2475 20.7674 72.2578 20.7245 72.2578 20.6809C72.2578 20.6374 72.2475 20.5945 72.2278 20.5558L67.2447 11.2996Z" fill="white"/>
<path d="M90.6677 19.9581C89.4715 19.4329 88.383 18.6878 87.4579 17.7612C86.534 16.8311 85.791 15.7354 85.2673 14.5304C84.7362 13.2682 84.4633 11.9112 84.4649 10.5404C84.4633 9.17226 84.7362 7.81788 85.2673 6.55849C85.79 5.35296 86.5331 4.25702 87.4579 3.32772C88.3791 2.3984 89.4687 1.65539 90.6677 1.13888C91.9179 0.601076 93.2642 0.326218 94.6238 0.331187C95.986 0.326026 97.3349 0.60087 98.5878 1.13888C99.7869 1.65539 100.876 2.3984 101.798 3.32772C102.721 4.25303 103.457 5.35033 103.964 6.55849C104.503 7.81563 104.776 9.17152 104.767 10.5404C104.776 11.9119 104.503 13.2704 103.964 14.5304C103.455 15.7375 102.719 16.8344 101.798 17.7612C100.873 18.6878 99.7841 19.4329 98.5878 19.9581C97.3338 20.4927 95.9857 20.7674 94.6238 20.7658C93.2646 20.7674 91.9189 20.4927 90.6677 19.9581Z" fill="white"/>
<path d="M8.28127 20.8546H0V0.444214H8.25717C12.1651 0.444214 14.7409 2.62499 14.7409 5.8073C14.7353 6.74081 14.462 7.65283 13.9538 8.43373C13.4456 9.21463 12.7242 9.83118 11.8762 10.2092C12.9004 10.5636 13.7916 11.2263 14.4289 12.1077C15.0662 12.989 15.4188 14.0463 15.439 15.1362C15.439 18.5446 12.5984 20.8546 8.28127 20.8546Z" fill="white"/>
<path d="M5.19141 17.1392H7.45435C9.05924 17.1392 9.98207 16.2427 9.98207 15.0554C9.98207 13.868 9.01111 12.9715 7.57474 12.9715H5.33589V5.54883H7.6148" stroke="black" stroke-width="0.25" stroke-miterlimit="10"/>
<path d="M133.47 5.89614C133.1 4.76957 132.477 3.74414 131.648 2.89961C130.823 2.04348 129.817 1.38631 128.703 0.9773C127.846 0.653927 126.939 0.487094 126.023 0.484619C125.098 0.4872 124.179 0.653969 123.311 0.9773C122.191 1.38582 121.176 2.04282 120.342 2.89961C119.514 3.74414 118.891 4.76957 118.521 5.89614C117.718 8.23845 118.039 10.7908 118.039 13.2219V20.1923C118.039 20.3215 118.039 20.6688 118.151 20.7496C118.264 20.8304 118.336 21 118.432 21H133.582C133.679 21 133.775 20.8142 133.855 20.7496C133.935 20.685 133.96 20.4184 133.96 20.2811C133.96 17.9631 133.96 15.5885 133.96 13.2704C133.96 10.9523 134.232 8.23845 133.47 5.89614Z" fill="white"/>
</g>
<defs>
<clipPath id="clip0_5_826">
<rect width="134" height="21" fill="white"/>
</clipPath>
</defs>
</svg>
